<svg xmlns="http://www.w3.org/2000/svg" xmlns:xlink="http://www.w3.org/1999/xlink" width="500" zoomAndPan="magnify" viewBox="0 0 375 374.999991" height="500" preserveAspectRatio="xMidYMid meet" version="1.0"><defs><g/><clipPath id="5cf1c65661"><path d="M 178 144.007812 L 254.542969 144.007812 L 254.542969 210.414062 L 178 210.414062 Z M 178 144.007812 " clip-rule="nonzero"/></clipPath><clipPath id="5572afab40"><path d="M 120.371094 144.007812 L 196.914062 144.007812 L 196.914062 210.414062 L 120.371094 210.414062 Z M 120.371094 144.007812 " clip-rule="nonzero"/></clipPath></defs><g clip-path="url(#5cf1c65661)"><path fill="#ffffff" d="M 254.246094 158.070312 L 245.734375 149.554688 L 245.8125 149.472656 L 241.925781 145.097656 C 239.332031 142.992188 236.417969 145.097656 236.417969 145.097656 C 236.417969 145.097656 185.035156 196.308594 183.089844 198.5 C 181.144531 200.695312 174.988281 207.648438 180.011719 209.914062 C 185.035156 212.183594 193.132812 206.511719 197.023438 197.277344 C 200.210938 189.707031 219.320312 174.230469 221.425781 173.628906 L 230.054688 182.257812 C 230.5625 182.765625 231.382812 182.765625 231.890625 182.257812 C 232.394531 181.753906 232.394531 180.933594 231.890625 180.425781 L 223.527344 172.066406 L 225.40625 170.160156 L 233.78125 178.535156 C 234.289062 179.039062 235.109375 179.039062 235.613281 178.535156 C 236.121094 178.027344 236.121094 177.207031 235.613281 176.699219 L 227.226562 168.3125 L 229.109375 166.40625 L 237.507812 174.804688 C 238.015625 175.3125 238.835938 175.3125 239.339844 174.804688 C 239.847656 174.300781 239.847656 173.480469 239.339844 172.972656 L 230.929688 164.5625 L 232.808594 162.65625 L 241.234375 171.082031 C 241.742188 171.585938 242.5625 171.585938 243.066406 171.082031 C 243.574219 170.574219 243.574219 169.753906 243.066406 169.246094 L 234.628906 160.808594 L 236.511719 158.902344 L 244.960938 167.355469 C 245.46875 167.859375 246.289062 167.859375 246.792969 167.355469 C 247.300781 166.847656 247.300781 166.027344 246.792969 165.519531 L 238.332031 157.058594 L 240.210938 155.152344 L 248.6875 163.628906 C 249.195312 164.132812 250.015625 164.132812 250.519531 163.628906 C 251.027344 163.121094 251.027344 162.300781 250.519531 161.792969 L 242.03125 153.304688 L 243.914062 151.398438 L 252.414062 159.902344 C 252.921875 160.40625 253.742188 160.40625 254.246094 159.902344 C 254.753906 159.394531 254.753906 158.574219 254.246094 158.070312 " fill-opacity="1" fill-rule="nonzero"/></g><g clip-path="url(#5572afab40)"><path fill="#ffffff" d="M 120.75 158.070312 L 129.265625 149.554688 L 129.183594 149.472656 L 133.074219 145.097656 C 135.664062 142.992188 138.578125 145.097656 138.578125 145.097656 C 138.578125 145.097656 189.964844 196.308594 191.910156 198.5 C 193.851562 200.695312 200.007812 207.648438 194.984375 209.914062 C 189.964844 212.183594 181.863281 206.511719 177.976562 197.277344 C 174.789062 189.707031 155.675781 174.230469 153.570312 173.628906 L 144.941406 182.257812 C 144.433594 182.765625 143.613281 182.765625 143.109375 182.257812 C 142.601562 181.753906 142.601562 180.933594 143.109375 180.425781 L 151.46875 172.066406 L 149.589844 170.160156 L 141.214844 178.535156 C 140.710938 179.039062 139.886719 179.039062 139.382812 178.535156 C 138.875 178.027344 138.875 177.207031 139.382812 176.699219 L 147.769531 168.3125 L 145.890625 166.40625 L 137.488281 174.804688 C 136.984375 175.3125 136.160156 175.3125 135.65625 174.804688 C 135.148438 174.300781 135.148438 173.480469 135.65625 172.972656 L 144.070312 164.5625 L 142.1875 162.65625 L 133.761719 171.082031 C 133.257812 171.585938 132.4375 171.585938 131.929688 171.082031 C 131.421875 170.574219 131.421875 169.753906 131.929688 169.246094 L 140.367188 160.808594 L 138.488281 158.902344 L 130.035156 167.355469 C 129.53125 167.859375 128.710938 167.859375 128.203125 167.355469 C 127.695312 166.847656 127.695312 166.027344 128.203125 165.519531 L 136.667969 157.058594 L 134.785156 155.152344 L 126.308594 163.628906 C 125.804688 164.132812 124.980469 164.132812 124.476562 163.628906 C 123.96875 163.121094 123.96875 162.300781 124.476562 161.792969 L 132.964844 153.304688 L 131.085938 151.398438 L 122.582031 159.902344 C 122.078125 160.40625 121.257812 160.40625 120.75 159.902344 C 120.242188 159.394531 120.242188 158.574219 120.75 158.070312 " fill-opacity="1" fill-rule="nonzero"/></g><path fill="#ffffff" d="M 206.554688 166.515625 C 206.367188 163.957031 203.910156 164.082031 202.890625 164.160156 C 201.871094 164.238281 202.339844 165.101562 202.339844 165.101562 C 203.382812 164.660156 205.832031 165.035156 205.011719 167.617188 C 204.335938 169.742188 201.320312 168.007812 201.320312 168.007812 C 199.691406 167.160156 192.839844 162.117188 190.796875 161.414062 C 188.753906 160.703125 187.140625 163.296875 187.140625 163.296875 C 187.019531 163.433594 186.917969 163.554688 186.828125 163.675781 C 186.742188 163.554688 186.640625 163.433594 186.519531 163.296875 C 186.519531 163.296875 184.90625 160.703125 182.863281 161.414062 C 180.820312 162.117188 173.96875 167.160156 172.339844 168.007812 C 172.339844 168.007812 169.324219 169.742188 168.648438 167.617188 C 167.828125 165.035156 170.277344 164.660156 171.316406 165.101562 C 171.316406 165.101562 171.789062 164.238281 170.769531 164.160156 C 169.746094 164.082031 167.292969 163.957031 167.105469 166.515625 C 166.863281 169.820312 170.238281 170.589844 172.417969 170.753906 C 174.929688 170.941406 178.152344 171.699219 183.726562 167.929688 C 183.726562 167.929688 185.878906 166.882812 186.828125 165.6875 C 187.777344 166.882812 189.933594 167.929688 189.933594 167.929688 C 195.507812 171.699219 198.726562 170.941406 201.242188 170.753906 C 203.421875 170.589844 206.796875 169.820312 206.554688 166.515625 " fill-opacity="1" fill-rule="nonzero"/><path fill="#ffffff" d="M 201.714844 134.667969 C 201.261719 128.636719 198.546875 118.691406 197.945312 116.335938 C 197.34375 113.980469 194.929688 111.457031 191.613281 114.167969 C 188.296875 116.882812 186.941406 116.277344 186.941406 116.277344 C 186.941406 116.277344 185.585938 116.882812 182.269531 114.167969 C 178.953125 111.457031 176.542969 113.980469 175.9375 116.335938 C 175.335938 118.691406 172.621094 128.636719 172.171875 134.667969 C 172.171875 134.667969 176.390625 136.023438 186.941406 136.023438 C 197.492188 136.023438 201.714844 134.667969 201.714844 134.667969 " fill-opacity="1" fill-rule="nonzero"/><path fill="#ffffff" d="M 208.042969 138.761719 C 207.289062 136.375 204.578125 137.53125 204.578125 137.53125 C 197.644531 139.039062 186.941406 138.738281 186.941406 138.738281 C 186.941406 138.738281 176.242188 139.039062 169.304688 137.53125 C 169.304688 137.53125 166.59375 136.375 165.839844 138.761719 C 165.085938 141.148438 166.746094 141.902344 169.003906 142.355469 C 171.265625 142.808594 179.855469 144.164062 186.941406 144.164062 C 194.027344 144.164062 202.617188 142.808594 204.878906 142.355469 C 207.140625 141.902344 208.796875 141.148438 208.042969 138.761719 " fill-opacity="1" fill-rule="nonzero"/><path fill="#ffffff" d="M 179.179688 147.980469 C 176.894531 147.980469 175.03125 149.839844 175.03125 152.125 C 175.03125 154.414062 176.894531 156.273438 179.179688 156.273438 C 181.46875 156.273438 183.328125 154.414062 183.328125 152.125 C 183.328125 149.839844 181.46875 147.980469 179.179688 147.980469 Z M 179.179688 158.519531 C 175.65625 158.519531 172.785156 155.652344 172.785156 152.125 C 172.785156 148.601562 175.65625 145.734375 179.179688 145.734375 C 182.703125 145.734375 185.574219 148.601562 185.574219 152.125 C 185.574219 155.652344 182.703125 158.519531 179.179688 158.519531 " fill-opacity="1" fill-rule="nonzero"/><path fill="#ffffff" d="M 194.589844 147.980469 C 192.304688 147.980469 190.445312 149.839844 190.445312 152.125 C 190.445312 154.414062 192.304688 156.273438 194.589844 156.273438 C 196.878906 156.273438 198.738281 154.414062 198.738281 152.125 C 198.738281 149.839844 196.878906 147.980469 194.589844 147.980469 Z M 194.589844 158.519531 C 191.066406 158.519531 188.199219 155.652344 188.199219 152.125 C 188.199219 148.601562 191.066406 145.734375 194.589844 145.734375 C 198.117188 145.734375 200.984375 148.601562 200.984375 152.125 C 200.984375 155.652344 198.117188 158.519531 194.589844 158.519531 " fill-opacity="1" fill-rule="nonzero"/><g fill="#ffffff" fill-opacity="1"><g transform="translate(91.860786, 241.784823)"><g><path d="M 17.363281 -21.4375 L 17.363281 -8.324219 L 7.679688 -21.4375 L 1.964844 -21.4375 L 1.964844 0 L 7.429688 0 L 7.429688 -13.148438 L 17.078125 0 L 22.832031 0 L 22.832031 -21.4375 Z M 17.363281 -21.4375 "/></g></g></g><g fill="#ffffff" fill-opacity="1"><g transform="translate(117.713317, 241.784823)"><g><path d="M 15.113281 0 L 20.972656 0 L 13.21875 -21.4375 L 7.109375 -21.4375 L -0.644531 0 L 5.253906 0 L 6.429688 -3.75 L 13.933594 -3.75 Z M 7.824219 -8.183594 L 10.183594 -15.757812 L 12.578125 -8.183594 Z M 7.824219 -8.183594 "/></g></g></g><g fill="#ffffff" fill-opacity="1"><g transform="translate(139.135622, 241.784823)"><g><path d="M 11.503906 -21.4375 L 1.964844 -21.4375 L 1.964844 0 L 7.429688 0 L 7.429688 -8.394531 L 11.503906 -8.394531 C 15.21875 -8.394531 18.078125 -11.113281 18.078125 -14.828125 C 18.078125 -18.472656 15.21875 -21.4375 11.503906 -21.4375 Z M 10.609375 -12.828125 L 7.429688 -12.828125 L 7.429688 -16.683594 L 10.609375 -16.683594 C 11.898438 -16.683594 12.828125 -15.898438 12.828125 -14.792969 C 12.828125 -13.648438 11.898438 -12.828125 10.609375 -12.828125 Z M 10.609375 -12.828125 "/></g></g></g><g fill="#ffffff" fill-opacity="1"><g transform="translate(158.235645, 241.784823)"><g><path d="M 12.21875 0.285156 C 18.292969 0.285156 23.222656 -4.644531 23.222656 -10.71875 C 23.222656 -16.792969 18.292969 -21.722656 12.21875 -21.722656 C 6.109375 -21.722656 1.214844 -16.792969 1.214844 -10.71875 C 1.214844 -4.644531 6.109375 0.285156 12.21875 0.285156 Z M 12.21875 -5.074219 C 8.96875 -5.074219 6.539062 -7.46875 6.539062 -10.71875 C 6.539062 -13.96875 8.96875 -16.363281 12.21875 -16.363281 C 15.433594 -16.363281 17.863281 -13.96875 17.863281 -10.71875 C 17.863281 -7.46875 15.433594 -5.074219 12.21875 -5.074219 Z M 12.21875 -5.074219 "/></g></g></g><g fill="#ffffff" fill-opacity="1"><g transform="translate(183.695177, 241.784823)"><g><path d="M 7.429688 -4.75 L 7.429688 -21.4375 L 1.964844 -21.4375 L 1.964844 0 L 14.253906 0 L 14.253906 -4.75 Z M 7.429688 -4.75 "/></g></g></g><g fill="#ffffff" fill-opacity="1"><g transform="translate(199.00808, 241.784823)"><g><path d="M 2.144531 0 L 7.609375 0 L 7.609375 -21.4375 L 2.144531 -21.4375 Z M 2.144531 0 "/></g></g></g><g fill="#ffffff" fill-opacity="1"><g transform="translate(209.783585, 241.784823)"><g><path d="M 15.613281 -21.4375 L -0.320312 -21.4375 L -0.320312 -16.683594 L 4.929688 -16.683594 L 4.929688 0 L 10.359375 0 L 10.359375 -16.683594 L 15.613281 -16.683594 Z M 15.613281 -21.4375 "/></g></g></g><g fill="#ffffff" fill-opacity="1"><g transform="translate(226.132591, 241.784823)"><g><path d="M 15.113281 0 L 20.972656 0 L 13.21875 -21.4375 L 7.109375 -21.4375 L -0.644531 0 L 5.253906 0 L 6.429688 -3.75 L 13.933594 -3.75 Z M 7.824219 -8.183594 L 10.183594 -15.757812 L 12.578125 -8.183594 Z M 7.824219 -8.183594 "/></g></g></g><g fill="#ffffff" fill-opacity="1"><g transform="translate(247.554899, 241.784823)"><g><path d="M 17.363281 -21.4375 L 17.363281 -8.324219 L 7.679688 -21.4375 L 1.964844 -21.4375 L 1.964844 0 L 7.429688 0 L 7.429688 -13.148438 L 17.078125 0 L 22.832031 0 L 22.832031 -21.4375 Z M 17.363281 -21.4375 "/></g></g></g><g fill="#ffffff" fill-opacity="1"><g transform="translate(273.407433, 241.784823)"><g><path d="M 2.144531 0 L 7.609375 0 L 7.609375 -21.4375 L 2.144531 -21.4375 Z M 2.144531 0 "/></g></g></g><g fill="#ffffff" fill-opacity="1"><g transform="translate(122.014655, 258.961507)"><g><path d="M 7.230469 -5.035156 C 7.925781 -5.414062 8.355469 -6.074219 8.355469 -7.117188 C 8.355469 -8.914062 7 -9.90625 5.300781 -9.90625 L 0.90625 -9.90625 L 0.90625 0 L 5.679688 0 C 7.363281 0 8.683594 -0.925781 8.683594 -2.742188 C 8.683594 -3.929688 8.105469 -4.65625 7.230469 -5.035156 Z M 5.828125 -6.835938 C 5.828125 -6.390625 5.449219 -5.960938 4.984375 -5.960938 L 3.433594 -5.960938 L 3.433594 -7.710938 L 4.984375 -7.710938 C 5.449219 -7.710938 5.828125 -7.296875 5.828125 -6.835938 Z M 5.300781 -2.195312 L 3.433594 -2.195312 L 3.433594 -3.945312 L 5.300781 -3.945312 C 5.792969 -3.945312 6.15625 -3.515625 6.15625 -3.070312 C 6.15625 -2.609375 5.792969 -2.195312 5.300781 -2.195312 Z M 5.300781 -2.195312 "/></g></g></g><g fill="#ffffff" fill-opacity="1"><g transform="translate(135.476695, 258.961507)"><g><path d="M 6.984375 0 L 9.691406 0 L 6.109375 -9.90625 L 3.285156 -9.90625 L -0.296875 0 L 2.425781 0 L 2.972656 -1.734375 L 6.4375 -1.734375 Z M 3.617188 -3.78125 L 4.707031 -7.28125 L 5.8125 -3.78125 Z M 3.617188 -3.78125 "/></g></g></g><g fill="#ffffff" fill-opacity="1"><g transform="translate(149.285421, 258.961507)"><g><path d="M 6.421875 -3.929688 C 7.5625 -4.324219 8.355469 -5.429688 8.355469 -6.785156 C 8.355469 -8.503906 7.082031 -9.90625 5.316406 -9.90625 L 0.90625 -9.90625 L 0.90625 0 L 3.433594 0 L 3.433594 -3.632812 L 4.011719 -3.632812 L 6.324219 0 L 9.164062 0 Z M 4.902344 -5.664062 L 3.433594 -5.664062 L 3.433594 -7.710938 L 4.902344 -7.710938 C 5.496094 -7.710938 5.925781 -7.28125 5.925781 -6.6875 C 5.925781 -6.09375 5.496094 -5.664062 4.902344 -5.664062 Z M 4.902344 -5.664062 "/></g></g></g><g fill="#ffffff" fill-opacity="1"><g transform="translate(162.69793, 258.961507)"><g><path d="M 7.230469 -5.035156 C 7.925781 -5.414062 8.355469 -6.074219 8.355469 -7.117188 C 8.355469 -8.914062 7 -9.90625 5.300781 -9.90625 L 0.90625 -9.90625 L 0.90625 0 L 5.679688 0 C 7.363281 0 8.683594 -0.925781 8.683594 -2.742188 C 8.683594 -3.929688 8.105469 -4.65625 7.230469 -5.035156 Z M 5.828125 -6.835938 C 5.828125 -6.390625 5.449219 -5.960938 4.984375 -5.960938 L 3.433594 -5.960938 L 3.433594 -7.710938 L 4.984375 -7.710938 C 5.449219 -7.710938 5.828125 -7.296875 5.828125 -6.835938 Z M 5.300781 -2.195312 L 3.433594 -2.195312 L 3.433594 -3.945312 L 5.300781 -3.945312 C 5.792969 -3.945312 6.15625 -3.515625 6.15625 -3.070312 C 6.15625 -2.609375 5.792969 -2.195312 5.300781 -2.195312 Z M 5.300781 -2.195312 "/></g></g></g><g fill="#ffffff" fill-opacity="1"><g transform="translate(176.15997, 258.961507)"><g><path d="M 7.132812 -7.710938 L 7.132812 -9.90625 L 0.992188 -9.90625 L 0.992188 0 L 7.132812 0 L 7.132812 -2.195312 L 3.515625 -2.195312 L 3.515625 -3.863281 L 6.570312 -3.863281 L 6.570312 -6.042969 L 3.515625 -6.042969 L 3.515625 -7.710938 Z M 7.132812 -7.710938 "/></g></g></g><g fill="#ffffff" fill-opacity="1"><g transform="translate(188.251773, 258.961507)"><g><path d="M 6.421875 -3.929688 C 7.5625 -4.324219 8.355469 -5.429688 8.355469 -6.785156 C 8.355469 -8.503906 7.082031 -9.90625 5.316406 -9.90625 L 0.90625 -9.90625 L 0.90625 0 L 3.433594 0 L 3.433594 -3.632812 L 4.011719 -3.632812 L 6.324219 0 L 9.164062 0 Z M 4.902344 -5.664062 L 3.433594 -5.664062 L 3.433594 -7.710938 L 4.902344 -7.710938 C 5.496094 -7.710938 5.925781 -7.28125 5.925781 -6.6875 C 5.925781 -6.09375 5.496094 -5.664062 4.902344 -5.664062 Z M 4.902344 -5.664062 "/></g></g></g><g fill="#ffffff" fill-opacity="1"><g transform="translate(201.664283, 258.961507)"><g><path d="M 4.144531 0.132812 C 6.042969 0.132812 7.675781 -0.972656 7.675781 -2.871094 C 7.675781 -6.636719 3.1875 -5.695312 3.1875 -7.199219 C 3.1875 -7.628906 3.515625 -7.824219 3.914062 -7.824219 C 4.40625 -7.824219 4.953125 -7.527344 5.480469 -6.96875 L 7.132812 -8.570312 C 6.355469 -9.476562 5.183594 -10.039062 3.945312 -10.039062 C 2.378906 -10.039062 0.644531 -9.128906 0.644531 -7.015625 C 0.644531 -3.582031 5.152344 -4.40625 5.152344 -2.90625 C 5.152344 -2.507812 4.820312 -2.230469 4.175781 -2.230469 C 3.320312 -2.230469 2.625 -2.691406 2.277344 -3.433594 L 0.214844 -2.144531 C 0.875 -0.890625 2.328125 0.132812 4.144531 0.132812 Z M 4.144531 0.132812 "/></g></g></g><g fill="#ffffff" fill-opacity="1"><g transform="translate(214.102774, 258.961507)"><g><path d="M 7 -9.90625 L 7 -6.058594 L 3.433594 -6.058594 L 3.433594 -9.90625 L 0.90625 -9.90625 L 0.90625 0 L 3.433594 0 L 3.433594 -3.863281 L 7 -3.863281 L 7 0 L 9.527344 0 L 9.527344 -9.90625 Z M 7 -9.90625 "/></g></g></g><g fill="#ffffff" fill-opacity="1"><g transform="translate(228.95155, 258.961507)"><g><path d="M 5.644531 0.132812 C 8.453125 0.132812 10.730469 -2.144531 10.730469 -4.953125 C 10.730469 -7.757812 8.453125 -10.039062 5.644531 -10.039062 C 2.824219 -10.039062 0.5625 -7.757812 0.5625 -4.953125 C 0.5625 -2.144531 2.824219 0.132812 5.644531 0.132812 Z M 5.644531 -2.34375 C 4.144531 -2.34375 3.019531 -3.449219 3.019531 -4.953125 C 3.019531 -6.457031 4.144531 -7.5625 5.644531 -7.5625 C 7.132812 -7.5625 8.253906 -6.457031 8.253906 -4.953125 C 8.253906 -3.449219 7.132812 -2.34375 5.644531 -2.34375 Z M 5.644531 -2.34375 "/></g></g></g><g fill="#ffffff" fill-opacity="1"><g transform="translate(244.625766, 258.961507)"><g><path d="M 5.316406 -9.90625 L 0.90625 -9.90625 L 0.90625 0 L 3.433594 0 L 3.433594 -3.878906 L 5.316406 -3.878906 C 7.03125 -3.878906 8.355469 -5.132812 8.355469 -6.851562 C 8.355469 -8.535156 7.03125 -9.90625 5.316406 -9.90625 Z M 4.902344 -5.925781 L 3.433594 -5.925781 L 3.433594 -7.710938 L 4.902344 -7.710938 C 5.496094 -7.710938 5.925781 -7.347656 5.925781 -6.835938 C 5.925781 -6.304688 5.496094 -5.925781 4.902344 -5.925781 Z M 4.902344 -5.925781 "/></g></g></g><g fill="#ffffff" fill-opacity="1"><g transform="translate(257.366209, 258.961507)"><g/></g></g></svg>